<svg xmlns="http://www.w3.org/2000/svg" viewBox="0 0 209.63 218.07">
  <title>Asset 1</title>
  <g id="Layer_2" data-name="Layer 2">
    <g id="Layer_1-2" data-name="Layer 1">
      <path
        d="M93.72,174.55,71.19,137c-29.06,9.84-67,12.53-69.68,51.64C1.16,193.59.36,206,0,218.07H209.63c-.35-12.1-1.16-24.48-1.5-29.44-2.73-39.11-40.63-41.8-69.69-51.64l-22.53,37.56Z"
        fill="#7e7e7e"
        fill-rule="evenodd"
      />
      <path d="M146.91,37.45l-.78,16.95c6.69,12.7-.15,19.64-3.67,22.16-1.67,14.6-10,24.33-20.59,29.18a39.89,39.89,0,0,1-33,0C78.31,100.89,70,91.16,68.28,76.56,64.77,74,57.92,67.1,64.62,54.4l-.79-16.95L64,36.3A37.39,37.39,0,0,1,83.1,13.48,50,50,0,0,1,106.83,8a47.69,47.69,0,0,1,23.29,6.23,34.79,34.79,0,0,1,16.69,22.21Z" />
      <path
        d="M104.6,150.77c18.53,0,33.55,12.47,33.55,23.32s-7.07,40-17.49,44H88.53C78.11,214.11,71,185,71,174.09S86.07,150.77,104.6,150.77Z"
        fill="#fff"
        fill-rule="evenodd"
      />
      <polygon
        points="105.04 151.02 92.39 164.36 96.16 169.18 86.42 218.07 97.09 218.07 113.01 218.07 121.48 217.71 115.11 169.19 117.7 164.36 105.04 151.02"
        fill="#ababab"
        fill-rule="evenodd"
      />
      <polygon
        points="133.13 95.69 134.53 124.38 104.12 154.85 75.55 123.63 76.86 95.61 133.13 95.69"
        fill="#b3b4b4"
        fill-rule="evenodd"
      />
      <polygon
        points="103 151.02 92.39 164.36 96.16 169.18 96.15 169.19 115.11 169.19 117.7 164.36 107.32 151.02 103 151.02"
        fill="#9a9b9b"
        fill-rule="evenodd"
      />
      <polygon
        points="62.82 136.99 75.63 121.92 105.04 151.02 82.54 176.18 62.82 136.99"
        fill="#e9e9ea"
        fill-rule="evenodd"
      />
      <polygon
        points="147.26 136.99 134.46 121.92 105.04 151.02 127.54 176.18 147.26 136.99"
        fill="#e9e9ea"
        fill-rule="evenodd"
      />
      <path
        d="M147,59.24s14.42,21.11-4.35,29.83Z"
        fill="#b3b4b4"
        fill-rule="evenodd"
      />
      <path
        d="M63.14,59.24S48.72,80.35,67.48,89.07Z"
        fill="#b3b4b4"
        fill-rule="evenodd"
      />
      <path
        d="M108.76,19.07c23,0,38.69,18.07,38.69,48.9,0,20.08-14.74,61.28-38.44,61.28h-7.94c-23.69,0-38.43-41.2-38.43-61.28,0-30.83,15.65-48.9,38.69-48.9Z"
        fill="#dadada"
        fill-rule="evenodd"
      />
      <path
        d="M62.64,68s-5.5-37.62.83-41C62.27,20.21,69,14.13,73.75,12.31c0,0,8.33-9.82,28-11.82,0,0,29.73-5.67,47.14,21.64,2.82,4.42,2.34,3.43-.84,7.5a106.71,106.71,0,0,1-.58,39.12s-4.59-29.3-9.75-33.13c0,0-30.3,16.32-63.77-2.83,0,0-4.56,3.36-6.62,11.59a54.32,54.32,0,0,0-1.08,5.83C65.31,56.45,64.08,61.71,62.64,68Z"
        fill-rule="evenodd"
      />
      <polygon
        points="75.47 218.07 53.45 176.24 60.3 164.44 47.97 160.59 50.29 142.41 63.82 136.99 63.82 136.99 64.44 138.21 104.82 218.07 75.47 218.07"
        fill="#5e5e5e"
        fill-rule="evenodd"
      />
      <polygon
        points="134.16 218.07 156.18 176.24 149.33 164.44 161.66 160.59 159.34 142.41 145.81 136.99 145.81 136.99 145.19 138.21 104.82 218.07 134.16 218.07"
        fill="#5e5e5e"
        fill-rule="evenodd"
      />
      <polygon
        points="40.43 191.93 45.16 218.07 37.44 218.07 40.43 191.93"
        fill="#5e5e5e"
        fill-rule="evenodd"
      />
      <polygon
        points="169.2 191.93 164.47 218.07 172.19 218.07 169.2 191.93"
        fill="#5e5e5e"
        fill-rule="evenodd"
      />
    </g>
  </g>
</svg>
